<svg width="143" height="100" version="1.1" xmlns="http://www.w3.org/2000/svg" desc="Created with imagetracer.js version 1.2.6" ><path fill="rgb(4,254,212)" stroke="rgb(4,254,212)" stroke-width="1" opacity="0.7686274509803922" d="M 109.5 35 L 109 36.5 L 108.5 59 L 108 36.5 L 109.5 35 Z " /><path fill="rgb(4,254,212)" stroke="rgb(4,254,212)" stroke-width="1" opacity="0.7686274509803922" d="M 41.5 39 L 42 42.5 L 41 42.5 L 41.5 39 Z " /><path fill="rgb(4,254,212)" stroke="rgb(4,254,212)" stroke-width="1" opacity="0.7686274509803922" d="M 100.5 39 L 101 43.5 L 100 43.5 L 100.5 39 Z " /><path fill="rgb(4,254,212)" stroke="rgb(4,254,212)" stroke-width="1" opacity="0.7686274509803922" d="M 67.5 46 L 74 46.5 L 67.5 47 L 67.5 46 Z " /><path fill="rgb(4,254,212)" stroke="rgb(4,254,212)" stroke-width="1" opacity="0.7686274509803922" d="M 63.5 54 L 68 54.5 L 63.5 55 L 63.5 54 Z " /><path fill="rgb(4,254,212)" stroke="rgb(4,254,212)" stroke-width="1" opacity="0.7686274509803922" d="M 74.5 54 L 80 54.5 L 74.5 55 L 74.5 54 Z " /><path fill="rgb(4,254,212)" stroke="rgb(4,254,212)" stroke-width="1" opacity="0.7686274509803922" d="M 105.5 63 L 106 65.5 L 105 65.5 L 105.5 63 Z " /><path fill="rgb(4,254,212)" stroke="rgb(4,254,212)" stroke-width="1" opacity="0.7686274509803922" d="M 106.5 67 L 107.5 69 L 106.5 67 Z " /><path fill="rgb(4,254,212)" stroke="rgb(4,254,212)" stroke-width="1" opacity="0.7686274509803922" d="M 108.5 70 L 109 84.5 L 108 84.5 L 108.5 70 Z " /><path fill="rgb(4,255,212)" stroke="rgb(4,255,212)" stroke-width="1" opacity="0.9921568627450981" d="M 70.5 5 L 91.5 12 L 93 11.5 L 92.5 13 L 121 22 Q 122.3 25 118.5 24 L 110.5 27 L 110.5 26 L 118 24 Q 119.3 21 115.5 22 L 70.5 6 L 53.5 12 L 53.5 11 L 70.5 5 Z " /><path fill="rgb(4,255,212)" stroke="rgb(4,255,212)" stroke-width="1" opacity="0.9921568627450981" d="M 49.5 11 L 52 12.5 L 36.5 18 L 36.5 17 L 50 12.5 L 49.5 11 Z " /><path fill="rgb(4,255,212)" stroke="rgb(4,255,212)" stroke-width="1" opacity="0.9921568627450981" d="M 33.5 18 L 35 18.5 L 24 22 Q 22.8 25 26.5 24 L 49 32.5 L 46.5 34 L 46.5 32 L 33.5 28 L 32 28.5 L 32.5 27 Q 25 26.5 21 22.5 L 33.5 18 Z " /><path fill="rgb(4,255,212)" stroke="rgb(4,255,212)" stroke-width="1" opacity="0.9921568627450981" d="M 107.5 27 L 109 27.5 L 75 39.5 L 75.5 41 L 73 39.5 L 107.5 27 Z " /><path fill="rgb(4,255,212)" stroke="rgb(4,255,212)" stroke-width="1" opacity="0.9921568627450981" d="M 50.5 33 L 72 40.5 L 70.5 41 L 67.5 40 L 66 40.5 L 66.5 39 L 52.5 35 L 50.5 33 Z " /><path fill="rgb(4,255,212)" stroke="rgb(4,255,212)" stroke-width="1" opacity="0.9921568627450981" d="M 110 37 L 112 37.5 L 112 58.5 L 114.5 62 Q 112.3 62.8 113 60.5 L 111.5 59 L 108 61.5 L 108.5 59 L 110 59.5 L 110 37 Z " /><path fill="rgb(4,255,212)" stroke="rgb(4,255,212)" stroke-width="1" opacity="0.9921568627450981" d="M 97.5 41 Q 99.8 41.8 99 45.5 L 98 45.5 L 97.5 42 Q 85.3 49.8 64.5 49 L 54.5 47 L 44 43 L 43.5 46 L 43 42 L 47.5 43 L 49 42.5 L 48.5 44 L 64.5 48 L 76.5 48 L 85.5 46 L 97.5 41 Z " /><path fill="rgb(4,255,212)" stroke="rgb(4,255,212)" stroke-width="1" opacity="0.9921568627450981" d="M 49.5 49 L 60.5 52 L 81.5 52 L 92.5 49 L 92.5 50 L 82 52.5 L 82.5 54 L 81.5 53 L 60.5 53 L 49.5 50 L 48 50.5 L 49.5 49 Z " /><path fill="rgb(4,255,212)" stroke="rgb(4,255,212)" stroke-width="1" opacity="0.9921568627450981" d="M 107.5 63 L 108 65.5 L 107 65.5 L 107.5 63 Z " /><path fill="rgb(4,255,212)" stroke="rgb(4,255,212)" stroke-width="1" opacity="0.9921568627450981" d="M 114.5 63 L 115 65.5 L 114 65.5 L 114.5 63 Z " /><path fill="rgb(4,255,212)" stroke="rgb(4,255,212)" stroke-width="1" opacity="0.9921568627450981" d="M 113.5 67 L 113.5 70 L 112 69.5 L 112 83.5 L 110 84 L 110 69.5 L 109 68.5 L 110.5 69 L 113.5 67 Z " /><path fill="rgb(4,255,212)" stroke="rgb(4,255,212)" stroke-width="1" opacity="1" d="M 69.5 5 L 71.5 6 L 73 5.5 L 72.5 7 L 75.5 6 L 75.5 8 L 78.5 7 L 78.5 9 L 81.5 8 L 81.5 10 L 84.5 9 L 84.5 11 L 91.5 13 L 93 12.5 L 92.5 14 L 95.5 13 L 95.5 15 L 98.5 14 L 98.5 16 L 101.5 15 L 101.5 17 L 104.5 16 L 104.5 18 L 109 19 L 109.5 17 L 110 18.5 L 109.5 20 L 112.5 19 L 112.5 21 L 115.5 20 L 115.5 22 L 118.5 21 L 118 22.5 L 119 24.5 L 117.5 24 L 115 24.5 L 115.5 26 L 112.5 25 L 112.5 27 L 110 26 L 109.5 29 L 109 27 L 104 28.5 L 104.5 30 L 101.5 29 L 101.5 31 L 98.5 30 L 98.5 32 L 95.5 31 L 96 32.5 L 95.5 34 L 95 32 L 87 34.5 L 87.5 36 L 84.5 35 L 84.5 37 L 81.5 36 L 81.5 38 L 78.5 37 L 78.5 39 L 75.5 38 L 75.5 40 L 73 39 L 72.5 42 L 72 40 L 69.5 41 L 69.5 39 L 66.5 40 L 66.5 38 L 63.5 39 L 63.5 37 L 60.5 38 L 60.5 36 L 57.5 37 L 57.5 35 L 54.5 36 L 54.5 34 L 50 33 L 49.5 35 L 49 32 L 46.5 33 L 46.5 31 L 43.5 32 L 43.5 30 L 40.5 31 L 40.5 29 L 37.5 30 L 37.5 28 L 33.5 27 L 32 27.5 L 32.5 26 L 29.5 27 L 29.5 25 L 26.5 26 L 26.5 24 L 23.5 25 L 24 23.5 Q 23.2 20.9 26.5 22 L 26.5 20 L 29.5 21 L 29.5 19 L 32.5 20 L 32.5 18 L 35 19 L 35.5 16 L 36 18 L 41 16.5 L 40.5 15 L 43.5 16 L 43.5 14 L 46.5 15 L 46.5 13 L 49.5 14 L 49.5 12 L 52 13 L 52.5 10 L 53 12 L 58 10.5 L 57.5 9 L 60.5 10 L 60.5 8 L 63.5 9 L 63.5 7 L 66.5 8 L 66.5 6 L 69.5 7 L 69.5 5 Z " /><path fill="rgb(4,255,212)" stroke="rgb(4,255,212)" stroke-width="1" opacity="1" d="M 110.5 36 L 109.5 38 L 110.5 36 Z " /><path fill="rgb(4,255,212)" stroke="rgb(4,255,212)" stroke-width="1" opacity="1" d="M 112.5 36 L 113 58.5 L 114 59.5 L 113 61.5 L 114 66.5 L 113 69.5 L 112.5 84 L 112 69 L 109.5 70 Q 111.1 68.3 108 66.5 L 107 60 L 109.5 59 Q 110.8 61.3 112 58.5 L 112.5 36 Z " /><path fill="rgb(4,255,212)" stroke="rgb(4,255,212)" stroke-width="1" opacity="1" d="M 96.5 41 Q 98.8 41.8 98 45.5 L 94 48 L 93.5 51 L 93 49 L 91 49.5 L 91.5 51 L 87.5 50 L 87.5 52 L 82.5 51 L 82.5 52 L 84 52.5 L 82.5 53 L 81.5 52 L 60.5 52 L 58.5 53 L 58.5 52 L 60 51.5 L 55.5 51 L 54 51.5 L 54.5 50 L 49.5 49 L 48 49.5 Q 48.8 47.3 46.5 48 Q 43.3 46.8 44 43 L 46.5 42 L 46.5 44 L 48.5 43 L 48.5 45 L 51.5 44 L 51.5 46 L 54.5 45 L 54.5 47 L 58 46.5 L 57.5 45 L 58.5 48 L 64 47.5 L 63.5 46 L 67 47.5 L 64 48.5 L 76.5 49 L 76.5 48 L 74 47.5 L 76.5 46 L 77 48 L 82 47.5 L 81.5 46 L 85.5 47 L 85.5 45 L 88.5 46 L 88.5 44 L 91.5 45 L 91.5 43 L 93.5 44 L 97 42.5 L 96.5 41 Z " /><path fill="rgb(4,255,212)" stroke="rgb(4,255,212)" stroke-width="1" opacity="1" d="M 68.5 53 L 75 53.5 L 68.5 54 L 68.5 53 Z " /><path fill="rgb(4,254,212)" stroke="rgb(4,254,212)" stroke-width="1" opacity="0.9764705882352941" d="M 110.5 35 L 111.5 37 L 110.5 35 Z " /><path fill="rgb(4,254,212)" stroke="rgb(4,254,212)" stroke-width="1" opacity="0.9764705882352941" d="M 113.5 35 L 114 58.5 L 113 58.5 L 113.5 35 Z " /><path fill="rgb(4,254,212)" stroke="rgb(4,254,212)" stroke-width="1" opacity="0.9764705882352941" d="M 44.5 40 L 43.5 42 L 44.5 40 Z " /><path fill="rgb(4,254,212)" stroke="rgb(4,254,212)" stroke-width="1" opacity="0.9764705882352941" d="M 44.5 46 Q 47.5 47.5 44.5 49 Q 41.5 47.5 44.5 46 Z " /><path fill="rgb(4,254,212)" stroke="rgb(4,254,212)" stroke-width="1" opacity="0.9764705882352941" d="M 64.5 46 L 67 46.5 L 64.5 47 L 64.5 46 Z " /><path fill="rgb(4,254,212)" stroke="rgb(4,254,212)" stroke-width="1" opacity="0.9764705882352941" d="M 97.5 46 Q 100.5 47.5 97.5 49 Q 94.5 47.5 97.5 46 Z " /><path fill="rgb(4,254,212)" stroke="rgb(4,254,212)" stroke-width="1" opacity="0.9764705882352941" d="M 68.5 54 L 74 54.5 L 68.5 55 L 68.5 54 Z " /><path fill="rgb(4,254,212)" stroke="rgb(4,254,212)" stroke-width="1" opacity="0.9764705882352941" d="M 106.5 61 L 107.5 63 L 106.5 61 Z " /><path fill="rgb(4,254,212)" stroke="rgb(4,254,212)" stroke-width="1" opacity="0.9764705882352941" d="M 107.5 66 L 108.5 68 L 107.5 66 Z " /><path fill="rgb(4,254,212)" stroke="rgb(4,254,212)" stroke-width="1" opacity="0.9764705882352941" d="M 114.5 66 Q 117.5 67.5 114.5 69 L 114.5 66 Z " /><path fill="rgb(4,254,212)" stroke="rgb(4,254,212)" stroke-width="1" opacity="0.9764705882352941" d="M 113.5 70 L 114 83.5 L 113 83.5 L 113.5 70 Z " /><path fill="rgb(4,254,212)" stroke="rgb(4,254,212)" stroke-width="1" opacity="0.9764705882352941" d="M 110.5 84 L 112 84.5 L 109.5 86 L 110.5 84 Z " /><path fill="rgb(0,0,0)" stroke="rgb(0,0,0)" stroke-width="1" opacity="0" d="M 0 0 L 143 0 L 143 100 L 0 100 L 0 0 Z M 70 1 L 70 2 L 73 2 L 70 1 Z M 67 2 L 67 3 L 69 3 L 67 2 Z M 74 2 L 74 3 L 76 3 L 74 2 Z M 64 3 L 64 4 L 66 4 L 64 3 Z M 70 3 L 24 20 L 21 20 L 21 26 L 70 43 L 91 37 L 120 26 L 121 26 L 121 20 L 88 8 L 70 3 Z M 77 3 L 77 4 L 79 4 L 77 3 Z M 61 4 L 61 5 L 63 5 L 61 4 Z M 80 4 L 80 5 L 82 5 L 80 4 Z M 58 5 L 58 6 L 60 6 L 58 5 Z M 83 5 L 83 6 L 85 6 L 83 5 Z M 55 6 L 55 7 L 57 7 L 55 6 Z M 86 6 L 86 7 L 88 7 L 86 6 Z M 50 8 L 50 9 L 52 9 L 50 8 Z M 47 9 L 47 10 L 49 10 L 47 9 Z M 94 9 L 94 10 L 96 10 L 94 9 Z M 44 10 L 44 11 L 46 11 L 44 10 Z M 97 10 L 97 11 L 99 11 L 97 10 Z M 41 11 L 41 12 L 43 12 L 41 11 Z M 100 11 L 100 12 L 102 12 L 100 11 Z M 38 12 L 38 13 L 40 13 L 38 12 Z M 103 12 L 103 13 L 105 13 L 103 12 Z M 33 14 L 33 15 L 35 15 L 33 14 Z M 30 15 L 30 16 L 32 16 L 30 15 Z M 111 15 L 111 16 L 113 16 L 111 15 Z M 27 16 L 27 17 L 29 17 L 27 16 Z M 114 16 L 114 17 L 116 17 L 114 16 Z M 117 17 L 117 18 L 119 18 L 117 17 Z M 24 28 L 24 29 L 26 29 L 24 28 Z M 117 28 L 117 29 L 119 29 L 117 28 Z M 27 29 L 27 30 L 29 30 L 27 29 Z M 114 29 L 114 30 L 116 30 L 114 29 Z M 30 30 L 30 31 L 32 31 L 30 30 Z M 111 30 L 111 31 L 113 31 L 111 30 Z M 106 32 L 106 33 L 108 33 L 106 32 Z M 111 32 L 111 33 L 113 33 L 111 32 Z M 38 33 L 38 34 L 40 34 L 38 33 Z M 103 33 L 103 34 L 105 34 L 103 33 Z M 114 33 L 106 35 L 106 55 L 105 58 Q 106 60 108 58 L 106 61 L 106 60 L 103 53 L 87 57 L 88 61 L 89 58 L 90 62 L 89 71 L 88 70 L 86 75 L 88 75 L 84 80 L 84 79 L 83 78 Q 80 79 82 81 L 74 84 Q 66 84 62 81 Q 59 80 61 79 L 56 76 L 58 76 L 56 72 L 56 59 L 55 70 L 54 60 Q 55 57 57 59 L 57 57 L 40 53 L 38 61 Q 37 70 40 76 L 39 79 L 41 79 L 40 81 L 43 82 L 42 81 L 41 83 L 46 86 L 44 84 L 43 86 L 49 90 L 49 88 L 57 94 L 70 97 L 81 96 L 93 90 L 92 92 L 94 92 Q 96 91 94 90 L 99 85 L 100 86 L 101 84 L 99 84 Q 100 81 102 83 L 103 81 L 101 81 L 105 73 Q 107 77 106 86 Q 107 88 109 86 L 113 87 L 115 84 L 116 71 L 117 84 L 117 70 L 115 70 L 119 68 L 115 60 L 117 60 L 117 34 L 116 58 L 115 58 L 115 34 L 114 33 Z M 41 34 L 41 35 L 43 35 L 41 34 Z M 100 34 L 100 35 L 102 35 L 100 34 Z M 44 35 L 44 36 L 46 36 L 44 35 Z M 97 35 L 97 36 L 99 36 L 97 35 Z M 47 36 L 47 37 L 49 37 L 47 36 Z M 97 37 L 97 38 L 99 38 L 97 37 Z M 40 38 L 39 46 L 40 46 L 40 38 Z M 41 38 L 40 48 L 42 47 L 51 53 L 68 56 L 84 55 L 98 50 L 101 47 Q 102 49 103 47 L 103 38 L 102 46 L 101 38 L 85 44 L 74 46 Q 53 46 41 38 Z M 52 38 L 52 39 L 54 39 L 52 38 Z M 89 38 L 89 39 L 91 39 L 89 38 Z M 55 39 L 55 40 L 57 40 L 55 39 Z M 86 39 L 86 40 L 88 40 L 86 39 Z M 92 39 L 92 40 L 94 40 L 92 39 Z M 50 40 L 50 41 L 52 41 L 50 40 Z M 58 40 L 58 41 L 60 41 L 58 40 Z M 83 40 L 83 41 L 85 41 L 83 40 Z M 89 40 L 89 41 L 91 41 L 89 40 Z M 53 41 L 53 42 L 55 42 L 53 41 Z M 61 41 L 61 42 L 63 42 L 61 41 Z M 80 41 L 82 43 L 85 43 L 80 41 Z M 86 41 L 86 42 L 88 42 L 86 41 Z M 56 42 L 56 43 L 59 43 L 56 42 Z M 64 42 L 59 44 L 68 44 L 69 45 L 73 45 L 64 42 Z M 77 42 L 74 43 L 74 44 L 81 44 L 77 42 Z M 44 50 L 41 52 L 48 54 L 50 54 L 44 50 Z M 97 51 L 89 54 L 90 56 L 99 53 L 97 51 Z M 100 51 L 100 52 L 103 52 L 100 51 Z M 39 53 L 38 56 L 39 56 L 39 53 Z M 51 54 L 51 55 L 54 56 L 58 56 L 51 54 Z M 85 55 L 85 56 L 88 56 L 85 55 Z M 38 56 L 37 60 L 38 60 L 38 56 Z M 59 56 L 59 57 L 66 57 L 59 56 Z M 77 56 L 77 57 L 84 57 L 77 56 Z M 68 57 L 68 58 L 75 58 L 68 57 Z M 37 60 L 36 70 L 37 70 L 37 60 Z M 89 61 L 88 69 L 89 69 L 89 61 Z M 38 70 L 37 75 L 38 75 L 38 70 Z M 86 75 L 84 78 L 86 77 L 86 75 Z M 66 81 L 66 82 L 69 82 L 66 81 Z M 75 81 L 75 82 L 78 82 L 75 81 Z M 70 82 L 70 83 L 74 83 L 70 82 Z M 110 88 L 110 89 L 113 89 L 110 88 Z M 57 95 L 57 96 L 59 96 L 57 95 Z M 85 95 L 85 96 L 87 96 L 85 95 Z M 60 96 L 60 97 L 62 97 L 60 96 Z M 82 96 L 82 97 L 84 97 L 82 96 Z M 63 97 L 63 98 L 68 98 L 63 97 Z M 76 97 L 76 98 L 81 98 L 76 97 Z M 70 98 L 70 99 L 75 99 L 70 98 Z " /><path fill="rgb(0,0,0)" stroke="rgb(0,0,0)" stroke-width="1" opacity="0" d="M 107.5 36 L 108 56.5 L 107 56.5 L 107.5 36 Z " /><path fill="rgb(0,0,0)" stroke="rgb(0,0,0)" stroke-width="1" opacity="0" d="M 105 69 L 108 70.5 L 106 70.5 L 105.5 72 L 105 69 Z " /><path fill="rgb(0,0,0)" stroke="rgb(0,0,0)" stroke-width="1" opacity="0" d="M 107.5 72 L 108 84.5 L 107 84.5 L 107.5 72 Z " /><path fill="rgb(4,62,252)" stroke="rgb(4,62,252)" stroke-width="1" opacity="0.023529411764705882" d="M 41.5 51 L 46 52.5 L 43.5 54 L 43.5 52 Q 40.5 52.5 41.5 51 Z " /><path fill="rgb(4,62,252)" stroke="rgb(4,62,252)" stroke-width="1" opacity="0.023529411764705882" d="M 99.5 51 L 103 51.5 L 99 52.5 L 99.5 54 L 96.5 53 L 96.5 55 L 93.5 54 L 93.5 56 L 91 54.5 L 99.5 51 Z " /><path fill="rgb(4,62,252)" stroke="rgb(4,62,252)" stroke-width="1" opacity="0.023529411764705882" d="M 38.5 53 L 40 56.5 L 38 56.5 L 39 69.5 L 38 74.5 L 39 74.5 L 39.5 73 L 40 74.5 L 39 76.5 L 41 76.5 L 40 78.5 L 42 79.5 Q 39.8 80.8 42.5 82 L 44 82.5 Q 41.2 84.2 45.5 86 L 48 87.5 L 50.5 91 L 52 90.5 L 51.5 92 L 53.5 93 L 55 92.5 L 54.5 94 L 56.5 93 L 56.5 95 L 59.5 94 L 59.5 96 L 63.5 95 L 63.5 96 L 62 96.5 L 68 97.5 L 62.5 98 Q 49.9 94.6 43 85.5 L 37 74.5 L 36 60.5 L 38.5 53 Z M 38 60 L 37 70 L 38 70 L 38 60 Z " /><path fill="rgb(4,62,252)" stroke="rgb(4,62,252)" stroke-width="1" opacity="0.023529411764705882" d="M 47.5 53 L 49 53.5 L 46.5 55 L 47.5 53 Z " /><path fill="rgb(4,62,252)" stroke="rgb(4,62,252)" stroke-width="1" opacity="0.023529411764705882" d="M 104.5 53 L 106 57.5 L 104.5 60 L 104 58.5 L 105 55.5 L 103 55.5 L 104.5 53 Z " /><path fill="rgb(4,62,252)" stroke="rgb(4,62,252)" stroke-width="1" opacity="0.023529411764705882" d="M 50.5 54 L 52 54.5 L 49.5 56 L 50.5 54 Z " /><path fill="rgb(4,62,252)" stroke="rgb(4,62,252)" stroke-width="1" opacity="0.023529411764705882" d="M 53.5 55 L 52.5 57 L 53.5 55 Z " /><path fill="rgb(4,62,252)" stroke="rgb(4,62,252)" stroke-width="1" opacity="0.023529411764705882" d="M 89.5 55 L 90.5 57 L 89.5 55 Z " /><path fill="rgb(4,62,252)" stroke="rgb(4,62,252)" stroke-width="1" opacity="0.023529411764705882" d="M 54 57 Q 57.8 55.5 57 58.5 L 56 59.5 L 56 71.5 L 62 79.5 Q 60.5 82.5 59 79.5 Q 59.8 77.3 57.5 78 L 56.5 75 L 55 74.5 L 55.5 73 L 54 72.5 L 55 69.5 Q 56.3 60.6 54 57 Z " /><path fill="rgb(4,62,252)" stroke="rgb(4,62,252)" stroke-width="1" opacity="0.023529411764705882" d="M 87 57 L 89 57.5 L 88 60.5 L 89 60.5 L 89.5 59 L 90 60.5 Q 87.3 62.3 89 68.5 L 90 70.5 Q 86.9 72.3 88.5 74 L 87 74.5 L 87.5 76 L 86 75.5 L 82.5 81 L 80.5 81 L 79 80.5 L 84 78 L 87.5 70 L 89 70.5 L 87 57 Z " /><path fill="rgb(4,62,252)" stroke="rgb(4,62,252)" stroke-width="1" opacity="0.023529411764705882" d="M 53.5 61 L 54 68.5 L 53 68.5 L 53.5 61 Z " /><path fill="rgb(4,62,252)" stroke="rgb(4,62,252)" stroke-width="1" opacity="0.023529411764705882" d="M 104.5 70 L 105.5 72 L 106.5 70 L 107 71.5 Q 103.5 85 93.5 92 Q 85.1 99.1 69.5 99 L 69.5 98 L 75 97.5 L 69 96.5 L 74.5 96 Q 75.8 98.3 80.5 97 L 80.5 95 L 83.5 96 L 83.5 94 L 86.5 95 L 86.5 93 L 88.5 94 L 88.5 92 L 90.5 93 L 90.5 91 Q 91.8 93.3 93 90.5 L 98.5 84 L 101 82.5 L 100.5 81 L 102 80.5 L 101.5 79 L 103 79.5 L 102 77.5 L 104 77.5 L 103 75.5 L 105 75.5 L 104.5 70 Z " /><path fill="rgb(4,62,252)" stroke="rgb(4,62,252)" stroke-width="1" opacity="0.023529411764705882" d="M 63.5 80 L 73.5 82 L 77.5 81 L 78.5 83 L 74.5 82 L 74.5 83 L 76 83.5 L 74.5 84 L 69.5 83 L 67.5 84 L 67.5 83 L 69 82.5 L 65.5 82 L 64 82.5 L 64.5 81 L 62.5 82 L 63.5 80 Z " /><path fill="rgb(3,254,212)" stroke="rgb(3,254,212)" stroke-width="1" opacity="0.2627450980392157" d="M 69.5 42 L 73 42.5 L 69.5 43 L 69.5 42 Z " /><path fill="rgb(3,254,212)" stroke="rgb(3,254,212)" stroke-width="1" opacity="0.2627450980392157" d="M 41.5 43 L 42 45.5 L 41 45.5 L 41.5 43 Z " /><path fill="rgb(3,254,212)" stroke="rgb(3,254,212)" stroke-width="1" opacity="0.2627450980392157" d="M 61.5 45 L 64 45.5 L 61.5 46 L 61.5 45 Z " /><path fill="rgb(3,254,212)" stroke="rgb(3,254,212)" stroke-width="1" opacity="0.2627450980392157" d="M 76.5 45 L 79 45.5 L 76.5 46 L 76.5 45 Z " /><path fill="rgb(3,254,212)" stroke="rgb(3,254,212)" stroke-width="1" opacity="0.2627450980392157" d="M 42.5 47 L 43.5 49 L 42.5 47 Z " /><path fill="rgb(3,254,212)" stroke="rgb(3,254,212)" stroke-width="1" opacity="0.2627450980392157" d="M 99.5 47 L 98.5 49 L 99.5 47 Z " /><path fill="rgb(3,254,212)" stroke="rgb(3,254,212)" stroke-width="1" opacity="0.2627450980392157" d="M 59.5 54 L 63 54.5 L 59.5 55 L 59.5 54 Z " /><path fill="rgb(3,254,212)" stroke="rgb(3,254,212)" stroke-width="1" opacity="0.2627450980392157" d="M 80.5 54 L 83 54.5 L 80.5 55 L 80.5 54 Z " /><path fill="rgb(3,254,212)" stroke="rgb(3,254,212)" stroke-width="1" opacity="0.2627450980392157" d="M 107.5 59 L 106.5 61 L 107.5 59 Z " /><path fill="rgb(3,254,212)" stroke="rgb(3,254,212)" stroke-width="1" opacity="0.2627450980392157" d="M 114.5 59 L 116.5 62 L 114.5 59 Z " /><path fill="rgb(3,254,212)" stroke="rgb(3,254,212)" stroke-width="1" opacity="0.2627450980392157" d="M 115.5 68 L 114.5 70 L 115.5 68 Z " /><path fill="rgb(3,254,212)" stroke="rgb(3,254,212)" stroke-width="1" opacity="0.2627450980392157" d="M 113.5 85 L 112.5 87 L 113.5 85 Z " /><path fill="rgb(4,255,224)" stroke="rgb(4,255,224)" stroke-width="1" opacity="1" d="M 85.5 9 L 89 10.5 L 87.5 11 L 85.5 9 Z " /><path fill="rgb(4,255,224)" stroke="rgb(4,255,224)" stroke-width="1" opacity="1" d="M 38.5 15 L 40 15.5 L 36.5 17 L 36.5 16 L 38.5 15 Z " /><path fill="rgb(4,255,224)" stroke="rgb(4,255,224)" stroke-width="1" opacity="1" d="M 107.5 28 L 109 28.5 L 105.5 30 L 105.5 29 L 107.5 28 Z " /><path fill="rgb(4,255,224)" stroke="rgb(4,255,224)" stroke-width="1" opacity="1" d="M 50.5 34 L 54 35.5 L 52.5 36 L 50.5 34 Z " /><path fill="rgb(4,255,224)" stroke="rgb(4,255,224)" stroke-width="1" opacity="1" d="M 90.5 34 L 92 34.5 L 88.5 36 L 88.5 35 L 90.5 34 Z " /><path fill="rgb(4,255,224)" stroke="rgb(4,255,224)" stroke-width="1" opacity="1" d="M 109.5 38 L 110 58.5 L 109 58.5 L 109.5 38 Z " /><path fill="rgb(4,255,224)" stroke="rgb(4,255,224)" stroke-width="1" opacity="1" d="M 42 40 L 44 40.5 L 43 45.5 L 45.5 49 Q 40.5 47.2 42 40 Z " /><path fill="rgb(4,255,224)" stroke="rgb(4,255,224)" stroke-width="1" opacity="1" d="M 97.5 40 L 100 40 L 100 45.5 L 94.5 50 L 94.5 49 L 99 45.5 Q 100.9 40.1 97.5 41 L 97.5 40 Z " /><path fill="rgb(4,255,224)" stroke="rgb(4,255,224)" stroke-width="1" opacity="1" d="M 82.5 45 L 85 45.5 L 82.5 46 L 82.5 45 Z " /><path fill="rgb(4,255,224)" stroke="rgb(4,255,224)" stroke-width="1" opacity="1" d="M 59.5 46 L 63 46.5 L 59.5 47 L 59.5 46 Z " /><path fill="rgb(4,255,224)" stroke="rgb(4,255,224)" stroke-width="1" opacity="1" d="M 77.5 46 L 81 46.5 L 77.5 47 L 77.5 46 Z " /><path fill="rgb(4,255,224)" stroke="rgb(4,255,224)" stroke-width="1" opacity="1" d="M 67.5 47 L 74 47.5 L 67.5 48 L 67.5 47 Z " /><path fill="rgb(4,255,224)" stroke="rgb(4,255,224)" stroke-width="1" opacity="1" d="M 88.5 51 L 91 51.5 L 88.5 52 L 88.5 51 Z " /><path fill="rgb(4,255,224)" stroke="rgb(4,255,224)" stroke-width="1" opacity="1" d="M 55.5 52 L 58 52.5 L 55.5 53 L 55.5 52 Z " /><path fill="rgb(4,255,224)" stroke="rgb(4,255,224)" stroke-width="1" opacity="1" d="M 84.5 52 L 87 52.5 L 84.5 53 L 84.5 52 Z " /><path fill="rgb(4,255,224)" stroke="rgb(4,255,224)" stroke-width="1" opacity="1" d="M 60.5 53 L 68 53.5 L 60.5 54 L 60.5 53 Z " /><path fill="rgb(4,255,224)" stroke="rgb(4,255,224)" stroke-width="1" opacity="1" d="M 75.5 53 L 82 53.5 L 75.5 54 L 75.5 53 Z " /><path fill="rgb(4,255,224)" stroke="rgb(4,255,224)" stroke-width="1" opacity="1" d="M 114.5 60 L 116 62.5 L 115 62.5 L 114.5 60 Z " /><path fill="rgb(4,255,224)" stroke="rgb(4,255,224)" stroke-width="1" opacity="1" d="M 106.5 62 Q 106 67 109 68.5 L 106 66.5 L 106.5 62 Z " /><path fill="rgb(4,255,224)" stroke="rgb(4,255,224)" stroke-width="1" opacity="1" d="M 115.5 65 L 116 66.5 L 114 67.5 L 115.5 65 Z " /><path fill="rgb(4,255,224)" stroke="rgb(4,255,224)" stroke-width="1" opacity="1" d="M 109.5 70 L 110 85 L 112.5 84 L 113 86 L 109 84.5 L 109.5 70 Z " /><path fill="rgb(17,72,251)" stroke="rgb(17,72,251)" stroke-width="1" opacity="0.5490196078431373" d="M 41.5 53 L 43 53.5 L 41 54 L 40.5 56 L 40 54.5 L 41.5 53 Z " /><path fill="rgb(17,72,251)" stroke="rgb(17,72,251)" stroke-width="1" opacity="0.5490196078431373" d="M 100.5 53 Q 103.8 51.9 103 54.5 L 101.5 54 L 100.5 53 Z " /><path fill="rgb(17,72,251)" stroke="rgb(17,72,251)" stroke-width="1" opacity="0.5490196078431373" d="M 39.5 57 L 40 59.5 L 39 59.5 L 39.5 57 Z " /><path fill="rgb(17,72,251)" stroke="rgb(17,72,251)" stroke-width="1" opacity="0.5490196078431373" d="M 104.5 60 L 105 69.5 L 104 69.5 L 104.5 60 Z " /><path fill="rgb(17,72,251)" stroke="rgb(17,72,251)" stroke-width="1" opacity="0.5490196078431373" d="M 90.5 62 L 91 68.5 L 90 68.5 L 90.5 62 Z " /><path fill="rgb(17,72,251)" stroke="rgb(17,72,251)" stroke-width="1" opacity="0.5490196078431373" d="M 53.5 69 L 54 71.5 L 53 71.5 L 53.5 69 Z " /><path fill="rgb(17,72,251)" stroke="rgb(17,72,251)" stroke-width="1" opacity="0.5490196078431373" d="M 87.5 76 L 83.5 81 L 87.5 76 Z " /><path fill="rgb(17,72,251)" stroke="rgb(17,72,251)" stroke-width="1" opacity="0.5490196078431373" d="M 57.5 78 L 58.5 80 L 57.5 78 Z " /><path fill="rgb(17,72,251)" stroke="rgb(17,72,251)" stroke-width="1" opacity="0.5490196078431373" d="M 42.5 80 L 43.5 82 L 42.5 80 Z " /><path fill="rgb(17,72,251)" stroke="rgb(17,72,251)" stroke-width="1" opacity="0.5490196078431373" d="M 81.5 81 L 80.5 83 L 79 82.5 L 81.5 81 Z " /><path fill="rgb(17,72,251)" stroke="rgb(17,72,251)" stroke-width="1" opacity="0.5490196078431373" d="M 99.5 82 L 98.5 84 L 99.5 82 Z " /><path fill="rgb(17,72,251)" stroke="rgb(17,72,251)" stroke-width="1" opacity="0.5490196078431373" d="M 44.5 83 L 50.5 90 L 44.5 83 Z " /><path fill="rgb(17,72,251)" stroke="rgb(17,72,251)" stroke-width="1" opacity="0.5490196078431373" d="M 70.5 84 L 73 84.5 L 70.5 85 L 70.5 84 Z " /><path fill="rgb(17,72,251)" stroke="rgb(17,72,251)" stroke-width="1" opacity="0.5490196078431373" d="M 93.5 88 L 91.5 91 L 93.5 88 Z " /><path fill="rgb(17,72,251)" stroke="rgb(17,72,251)" stroke-width="1" opacity="0.5490196078431373" d="M 52.5 90 L 53.5 92 L 52.5 90 Z " /><path fill="rgb(17,72,251)" stroke="rgb(17,72,251)" stroke-width="1" opacity="0.5490196078431373" d="M 64.5 95 L 67 95.5 L 64.5 96 L 64.5 95 Z " /><path fill="rgb(17,72,251)" stroke="rgb(17,72,251)" stroke-width="1" opacity="0.5490196078431373" d="M 76.5 95 L 80 95.5 L 76.5 96 L 76.5 95 Z " /><path fill="rgb(18,74,251)" stroke="rgb(18,74,251)" stroke-width="1" opacity="0.9921568627450981" d="M 41 54 L 44.5 54 L 54 58.5 L 53 59.5 L 53 71.5 L 58.5 80 Q 63.2 84.8 72.5 85 L 80.5 83 L 88 76.5 L 91 68.5 L 91 62.5 L 90 57 L 101.5 54 L 104 58.5 L 104 72.5 Q 101.1 82.1 94.5 88 Q 85.7 96.7 67.5 96 L 54.5 92 L 44 82.5 L 39 70.5 L 39 60.5 L 41 54 Z " /><path fill="rgb(0,254,217)" stroke="rgb(0,254,217)" stroke-width="1" opacity="0.011764705882352941" d="M 69.5 1 L 72.5 1 L 90 7.5 L 87.5 9 L 87.5 7 L 84.5 8 L 84.5 6 L 81.5 7 L 81.5 5 L 78.5 6 L 78.5 4 L 75.5 5 L 75.5 3 L 72.5 4 L 72.5 2 L 69 2.5 L 69.5 4 L 66.5 3 L 66.5 5 L 63.5 4 L 63.5 6 L 60.5 5 L 60.5 7 L 57.5 6 L 57.5 8 L 54.5 7 L 54.5 9 L 52.5 8 L 46 10.5 L 46.5 12 L 43.5 11 L 43.5 13 L 40.5 12 L 40.5 14 L 37.5 13 L 37.5 15 L 35.5 14 L 29 16.5 L 29.5 18 L 26.5 17 L 26.5 19 L 24 17.5 L 69.5 1 Z " /><path fill="rgb(0,254,217)" stroke="rgb(0,254,217)" stroke-width="1" opacity="0.011764705882352941" d="M 91.5 8 L 107 13.5 L 104.5 15 L 104.5 13 L 101.5 14 L 101.5 12 L 98.5 13 L 98.5 11 L 91.5 9 L 91.5 8 Z " /><path fill="rgb(0,254,217)" stroke="rgb(0,254,217)" stroke-width="1" opacity="0.011764705882352941" d="M 108.5 14 L 121 18.5 L 118.5 20 L 118.5 18 L 115.5 19 L 115.5 17 L 112.5 18 L 112.5 16 Q 107.7 16 108.5 14 Z " /><path fill="rgb(0,254,217)" stroke="rgb(0,254,217)" stroke-width="1" opacity="0.011764705882352941" d="M 23.5 26 L 23.5 28 L 26.5 27 L 26.5 29 L 29.5 28 L 29.5 30 L 34 31.5 L 32.5 32 L 22 27.5 L 23.5 26 Z " /><path fill="rgb(0,254,217)" stroke="rgb(0,254,217)" stroke-width="1" opacity="0.011764705882352941" d="M 118.5 26 L 121 27.5 L 113 30.5 L 113.5 33 L 115 33.5 L 115 57.5 L 116 57.5 L 116.5 34 L 117 59.5 L 120 64.5 L 117 69.5 L 117 83.5 L 112.5 89 Q 106.8 89.8 106 85.5 L 106 72.5 L 107.5 71 L 107 72.5 L 107 84.5 L 108.5 87 L 110 86.5 L 109.5 88 Q 114.3 88.8 115 85.5 L 114 83.5 L 114 70 L 117 68.5 L 116.5 67 L 118 66.5 L 117 63.5 L 118 61.5 L 114 59 L 114 34.5 L 112.5 33 L 110 33.5 L 110.5 35 L 105.5 33 L 99 35.5 L 101 36.5 L 99 37.5 L 101 38.5 L 99.5 39 L 96.5 38 L 96.5 40 L 94.5 39 L 88 41.5 L 88.5 43 L 85.5 42 L 81 43.5 L 81.5 45 Q 79.8 42.3 73.5 44 L 68.5 45 L 67.5 44 L 59.5 44 L 58 44.5 L 58.5 43 L 54.5 44 L 54.5 42 L 51.5 43 L 51.5 41 L 47.5 40 L 46 40.5 L 46.5 39 L 44.5 40 L 44.5 38 L 41.5 39 L 41.5 38 L 43 37.5 L 41 36.5 L 43 35.5 L 35 32.5 L 37.5 31 L 37.5 33 L 40.5 32 L 40.5 34 L 43.5 33 L 43.5 35 L 50.5 37 L 52 36.5 L 51.5 38 L 54.5 37 L 54.5 39 L 57.5 38 L 57.5 40 L 60.5 39 L 60.5 41 L 63.5 40 L 63.5 42 L 72.5 44 L 82 40.5 L 81.5 39 L 84.5 40 L 84.5 38 L 87.5 39 L 87.5 37 L 90.5 38 L 90.5 36 L 93 37.5 L 91 38.5 L 93.5 39 L 96 37.5 L 94 36.5 L 102 33.5 L 101.5 32 L 104.5 33 L 104.5 31 L 107.5 32 L 107.5 30 L 109.5 31 L 116 28.5 L 115.5 27 L 118.5 28 L 118.5 26 Z M 111 31 L 111 32 L 113 32 L 111 31 Z M 44 36 Q 49 41 60 43 L 63 43 L 44 36 Z M 97 36 L 97 37 L 99 37 L 97 36 Z M 89 39 L 89 40 L 91 40 L 89 39 Z M 86 40 L 86 41 L 88 41 L 86 40 Z M 83 41 L 83 42 L 85 42 L 83 41 Z M 116 71 L 115 84 L 116 84 L 116 71 Z " /><path fill="rgb(0,254,217)" stroke="rgb(0,254,217)" stroke-width="1" opacity="0.011764705882352941" d="M 106 35 L 108 35.5 L 107 36.5 L 107 56.5 Q 109.8 58.3 105.5 60 L 106 58.5 L 106 35 Z " /><path fill="rgb(0,254,217)" stroke="rgb(0,254,217)" stroke-width="1" opacity="0.011764705882352941" d="M 39.5 38 L 40 46 L 42 46.5 Q 39.3 48.2 43.5 50 L 45 49.5 L 44.5 51 L 48 52.5 L 46.5 53 L 40 47.5 Q 37.6 44.2 39.5 38 Z " /><path fill="rgb(0,254,217)" stroke="rgb(0,254,217)" stroke-width="1" opacity="0.011764705882352941" d="M 102.5 38 L 103 46.5 Q 100.6 51.6 94.5 53 L 94.5 52 L 98 50.5 L 97.5 49 Q 99.2 51.8 101 47.5 L 100.5 46 L 102 45.5 L 102.5 38 Z " /><path fill="rgb(0,254,217)" stroke="rgb(0,254,217)" stroke-width="1" opacity="0.011764705882352941" d="M 64.5 45 L 67 45.5 L 64.5 46 L 64.5 45 Z " /><path fill="rgb(0,254,217)" stroke="rgb(0,254,217)" stroke-width="1" opacity="0.011764705882352941" d="M 50.5 52 L 49.5 54 L 50.5 52 Z " /><path fill="rgb(0,254,217)" stroke="rgb(0,254,217)" stroke-width="1" opacity="0.011764705882352941" d="M 91.5 52 L 92.5 54 L 91.5 52 Z " /><path fill="rgb(0,254,217)" stroke="rgb(0,254,217)" stroke-width="1" opacity="0.011764705882352941" d="M 54.5 53 L 54.5 55 L 58.5 54 L 58.5 56 L 66 56.5 L 58.5 57 L 52 54.5 L 54.5 53 Z " /><path fill="rgb(0,254,217)" stroke="rgb(0,254,217)" stroke-width="1" opacity="0.011764705882352941" d="M 83.5 54 L 88 55.5 Q 83.9 57.9 76.5 57 L 76.5 56 L 84 55.5 L 83.5 54 Z " /><path fill="rgb(0,254,217)" stroke="rgb(0,254,217)" stroke-width="1" opacity="0.011764705882352941" d="M 67.5 55 L 75 55.5 L 67.5 56 L 67.5 55 Z " /><path fill="rgb(0,254,217)" stroke="rgb(0,254,217)" stroke-width="1" opacity="0.011764705882352941" d="M 67.5 57 L 75 57.5 L 67.5 58 L 67.5 57 Z " /><path fill="rgb(0,254,217)" stroke="rgb(0,254,217)" stroke-width="1" opacity="0.011764705882352941" d="M 106.5 68 L 107.5 70 L 106.5 68 Z " /></svg>